<svg xmlns="http://www.w3.org/2000/svg" viewBox="0 0 681.24 267.28"><defs><style>.cls-1,.cls-4{fill:#3b27ba;}.cls-1{stroke:#3b27ba;}.cls-1,.cls-2{stroke-miterlimit:10;stroke-width:9px;}.cls-2{fill:none;stroke:#ff9472;}.cls-3{fill:#ff9472;}</style></defs><g id="Layer_2" data-name="Layer 2"><g id="MainMenu_start"><path class="cls-1" d="M496.9,262.31C491,250.73,4.5,250,4.5,262.31V60.49c0,15.38,492.4,10.25,492.4,0S502.75,273.88,496.9,262.31Z"/><path class="cls-2" d="M491,250.73c-5.77,13.6-462.18,17.17-473.08,0S9.63,93.54,18,77.65s463.46-9.75,473.08,0S496.81,237.13,491,250.73Z"/><path class="cls-3" d="M125.87,116c16.14-14.83,34.35-31.87,37.27-54.82a46.89,46.89,0,0,0-4.59-27.37,32.29,32.29,0,0,0-22.69-17.09c-11.65-2.17-24,.81-35.05,4.51-9.6,3.22-18.94,7.67-26.75,14.21-7.43,6.22-13.15,14.69-14.64,24.4-1.84,11.92,2.34,23.52,8.68,33.48,6.65,10.45,15.49,19.35,24.37,27.91,9.13,8.79,18.65,17.18,27.88,25.88,9,8.48,18,17.25,25.54,27.06,7,9,12.93,19.32,15.4,30.55a40.68,40.68,0,0,1,.49,16,38.32,38.32,0,0,1-6.71,15.47,54.3,54.3,0,0,1-23,18A66.63,66.63,0,0,1,79,253.09a56.82,56.82,0,0,1-21.11-16.6,59.14,59.14,0,0,1-10.95-25c-3.39-17.69.68-37,11.56-51.46a55.43,55.43,0,0,1,9.12-9.44,2.5,2.5,0,0,0,0-3.53,2.54,2.54,0,0,0-3.53,0C49.38,159.14,41.47,178,40.83,196.76s6.16,37.87,20.3,50.53,34,18.36,52.79,16.47c19.84-2,40-12.69,49.1-31.11,11.07-22.39-1.25-47.08-15.67-64.65-16-19.44-35.86-35.16-53.76-52.7C85,106.86,76.44,98,70.44,87.48c-5.52-9.71-8.49-21-4.85-31.94C68.52,46.78,75.34,40,83,35c8.33-5.38,17.72-8.92,27.28-11.39,11-2.83,23.64-4.8,33.84,1.42,7.53,4.59,11.89,12.8,13.62,21.28a45.08,45.08,0,0,1-3.08,27.05c-4.62,10.46-12,19.32-20,27.38-4,4-8.13,7.84-12.28,11.67-2.38,2.18,1.17,5.71,3.53,3.53Z"/><path class="cls-3" d="M201.69,1.84C196,18.4,190.35,35,185.43,51.79a391,391,0,0,0-11.71,51c-2.59,17-4.56,35,.1,51.89,3.69,13.31,12.26,26.21,25.11,32.14,11.89,5.48,27.27,4.15,36.94-5.17a29,29,0,0,0,3.18-3.72,2.53,2.53,0,0,0-.9-3.42,2.56,2.56,0,0,0-3.42.9c-7,9.6-20.94,11.72-31.6,7.79-12-4.44-20.27-16.2-24-28.05-4.89-15.75-3.26-32.86-.94-48.91a373.36,373.36,0,0,1,10.83-49C193.68,41,199.05,25,204.51,9c.66-1.95,1.33-3.91,2-5.86A2.53,2.53,0,0,0,204.77.09a2.55,2.55,0,0,0-3.08,1.75Z"/><path class="cls-3" d="M150.67,127.24l54.83-6.47a2.57,2.57,0,0,0,2.5-2.5,2.53,2.53,0,0,0-2.5-2.5l-4.85-.09c-3.21-.06-3.21,4.94,0,5l4.85.09v-5l-54.83,6.47a2.58,2.58,0,0,0-2.5,2.5,2.51,2.51,0,0,0,2.5,2.5Z"/><path class="cls-3" d="M222.89,110.82c1.1-4,2.94-9.25,7-11.1,4.37-2,8.43,2,10.67,5.52a56.3,56.3,0,0,1,6.87,17,56.3,56.3,0,0,1,1.8,17.76c-.39,5-2,10.52-6.44,13.35l3.42.9a5.09,5.09,0,0,1-.64-4.57c1-3.07-3.86-4.39-4.82-1.33a10,10,0,0,0,1.14,8.42,2.53,2.53,0,0,0,3.42.9c11.28-7.19,9.83-23.75,7.36-35a70.36,70.36,0,0,0-3.33-10.84,52.31,52.31,0,0,0-4.56-9.29c-3.35-5.1-8.84-9.72-15.35-8s-9.75,8.94-11.37,14.89c-.84,3.11,4,4.44,4.82,1.33Z"/><path class="cls-3" d="M249.34,121.09c-11.06-6.94-28.07-4.37-35.22,7.09a11.83,11.83,0,0,0-1.51,10,13,13,0,0,0,5.9,6.77c5.81,3.41,13.15,3.72,19.69,3.15a54.33,54.33,0,0,0,24.26-8.09c2.71-1.71.21-6-2.52-4.32a49.72,49.72,0,0,1-18.39,7c-5.66,1-12,1.14-17.47-.68a12.23,12.23,0,0,1-5.69-3.54,6,6,0,0,1-.85-6.09c1.91-5,7.53-8.25,12.46-9.5a21.67,21.67,0,0,1,16.82,2.48c2.73,1.72,5.25-2.6,2.52-4.31Z"/><path class="cls-3" d="M268.48,134.85a443.75,443.75,0,0,0,3.3,48.33l4.91-.67c-1.69-8.69-3.5-17.9-.64-26.55a20.78,20.78,0,0,1,5.68-9,19.08,19.08,0,0,1,10.17-4.35c4.56-.66,9.26-.26,13.82.13a2.52,2.52,0,0,0,2.5-2.5,2.55,2.55,0,0,0-2.5-2.5c-8.79-.74-18.6-1.2-26,4.45-7.21,5.49-10.11,14.74-10.16,23.51,0,6.11,1.15,12.16,2.32,18.13.53,2.73,5.26,2.15,4.91-.66a443.75,443.75,0,0,1-3.3-48.33c0-3.22-5-3.23-5,0Z"/><path class="cls-3" d="M322.67,14.92c-10.41,23.43-4.07,49.72,7.25,71.58a177.42,177.42,0,0,0,19.41,29.23,209.85,209.85,0,0,0,22.26,23.63A224.91,224.91,0,0,0,426,175.83a228.89,228.89,0,0,0,62.59,19.55,214,214,0,0,0,65.73.35c2.65-.41,5.3-.87,7.93-1.38a2.5,2.5,0,1,0-1.32-4.82,205.78,205.78,0,0,1-63.72,2.05,221.1,221.1,0,0,1-61-16.59,222.09,222.09,0,0,1-54.46-33.41,200.3,200.3,0,0,1-42.11-48.11c-12.19-19.79-21.61-44.62-15.43-68a52.86,52.86,0,0,1,2.79-8,2.58,2.58,0,0,0-.89-3.42,2.52,2.52,0,0,0-3.42.9Z"/><path class="cls-3" d="M313.47,99.15a120.37,120.37,0,0,0,39.65,43.35,117.64,117.64,0,0,0,14.45,8.11,2.57,2.57,0,0,0,3.42-.89,2.53,2.53,0,0,0-.89-3.43,114.14,114.14,0,0,1-52.31-49.67c-1.52-2.84-5.84-.31-4.32,2.53Z"/><path class="cls-3" d="M310.91,119.51c-.28,4.5,2.59,8.29,5.84,11.08a135.93,135.93,0,0,0,11.75,8.64,294.88,294.88,0,0,0,25.25,15.6q7.37,4,14.95,7.67a2.57,2.57,0,0,0,3.42-.9,2.52,2.52,0,0,0-.9-3.42A295.56,295.56,0,0,1,322.79,129c-3.06-2.27-7.15-5.27-6.88-9.52.2-3.22-4.8-3.21-5,0Z"/><path class="cls-3" d="M458.75,168.74a353,353,0,0,0,48,10.93,357.59,357.59,0,0,0,49.45,4.21q13.9.21,27.81-.69a2.57,2.57,0,0,0,2.5-2.5,2.52,2.52,0,0,0-2.5-2.5,354,354,0,0,1-49-.26,347.33,347.33,0,0,1-48.24-7.06q-13.49-2.94-26.69-7c-3.09-.93-4.41,3.89-1.33,4.82Z"/><path class="cls-4" d="M569.79,96.71c-5,8.83,53.23,67,108.92,84.52a295.17,295.17,0,0,1-163.86,68.39c19.29-12.8,50.24-14.93,72.34-31.74,33.14-25.21,34.91-38.38,25.32-51.55s-39-3.1-47.47-14.12C557.42,142.23,563.62,107.65,569.79,96.71Z"/><path class="cls-3" d="M567.63,95.45c-2.16,4,1.4,9.14,3.57,12.31a124.53,124.53,0,0,0,15.58,17.9,271.93,271.93,0,0,0,54.14,41.18,186.27,186.27,0,0,0,37.13,16.8l-1.1-4.18a290.46,290.46,0,0,1-58,38.11A294.07,294.07,0,0,1,553.4,241a283.69,283.69,0,0,1-38.55,6.1l1.27,4.66c8.31-5.48,17.86-8.67,27.26-11.75,10.49-3.44,21.09-6.71,31-11.53,10.64-5.14,20-12.59,28.67-20.6,6-5.59,12-11.94,15.19-19.64a21.43,21.43,0,0,0,.41-15.9,31.47,31.47,0,0,0-4-7.29,19.16,19.16,0,0,0-9.36-6.63c-7.8-2.76-16.44-2.25-24.58-2.93a43.2,43.2,0,0,1-5.28-.68c-.9-.18-1.8-.39-2.68-.65-.39-.11-.77-.23-1.14-.37l-.45-.16-.43-.17q.38.15,0,0a18.27,18.27,0,0,1-1.93-1.08,2.8,2.8,0,0,1-.35-.25c.45.33-.11-.09-.17-.14-.32-.28-.63-.57-.92-.88l-.34-.41c-.27-.31.3.46,0,0-.17-.26-.34-.51-.5-.77s-.31-.57-.45-.85-.17-.37-.25-.55c.24.55,0-.09-.06-.17a31.16,31.16,0,0,1-1.68-10.17,86.24,86.24,0,0,1,.64-12.85,96.56,96.56,0,0,1,5.61-23.83c.06-.15.46-1.11.26-.65.14-.33.28-.65.43-1,.3-.64.61-1.26,1-1.88,1.57-2.81-2.74-5.33-4.31-2.52-3.65,6.53-5.38,14.32-6.72,21.61-1.54,8.43-2.58,17.31-1.5,25.86.43,3.37,1.12,6.89,3,9.81a15,15,0,0,0,8.15,6,44.93,44.93,0,0,0,11.35,1.89c4.23.3,8.46.39,12.68.79a44.43,44.43,0,0,1,5.55.8c.89.19,1.76.4,2.63.66.42.13.84.26,1.26.41l.73.27a1.75,1.75,0,0,1,.34.14,18,18,0,0,1,2.22,1.17,8.7,8.7,0,0,1,1.83,1.4,15,15,0,0,1,2.54,3.25,28.82,28.82,0,0,1,1.86,3.35c.08.16.15.32.22.48.24.53-.15-.38,0,0s.21.53.31.81c.21.59.4,1.19.56,1.8s.24,1.16.36,1.75c0,.14.06.49,0-.16,0,.17,0,.34,0,.51,0,.34.06.68.07,1a14.43,14.43,0,0,1,0,1.74c0,.3,0,.59-.07.89-.05.59.07-.42,0,0,0,.21-.07.42-.1.63a21,21,0,0,1-1.11,3.91c-.06.17-.12.33-.19.49-.15.38.25-.55,0,.08l-.45,1c-.37.76-.76,1.5-1.19,2.22a49.35,49.35,0,0,1-7,9.12,126.43,126.43,0,0,1-11.81,11,112.31,112.31,0,0,1-14.33,10.5c-9.44,5.59-19.84,9.18-30.22,12.58-9.77,3.19-19.74,6.17-28.92,10.86a62,62,0,0,0-6.06,3.52c-1.89,1.25-1.38,4.89,1.26,4.65a295,295,0,0,0,69.58-14.74,299.62,299.62,0,0,0,63.75-30.59A295.72,295.72,0,0,0,680.48,183c1.51-1.28.56-3.66-1.1-4.18-22.22-7-42.72-19.26-61.34-33.08a269.4,269.4,0,0,1-24.29-20.32c-3.29-3.1-6.49-6.29-9.56-9.61q-1.92-2.07-3.75-4.23c-.59-.68-1.16-1.38-1.73-2.08-.27-.33-.54-.67-.8-1l-.26-.33c-.25-.32.17.23-.24-.3a42.13,42.13,0,0,1-4.71-7.4c-.06-.12-.1-.24-.16-.35-.2-.39.23.64,0,0-.09-.24-.19-.49-.27-.73-.13-.4-.17-.86-.32-1.24s0,.69,0,.32c0-.1,0-.22,0-.32a2.37,2.37,0,0,0,0-.46c0,.14-.19.68,0,.12s-.33.64-.06.13C573.48,95.15,569.17,92.62,567.63,95.45Z"/></g></g></svg>